<?xml version="1.0" encoding="UTF-8"?>
<svg id="Layer_1" data-name="Layer 1" xmlns="http://www.w3.org/2000/svg" viewBox="0 0 78.42 75.62">
  <defs>
    <style>
      .cls-1 {
        fill: #c4c6ec;
        stroke-width: 0px;
      }
    </style>
  </defs>
  <path class="cls-1" d="M17.77,14.44l9.49-9.49c6.6-6.6,17.31-6.6,23.91,0l9.49,9.49c1.59,1.59,2.48,3.74,2.48,5.98v8.43L40.07,5.78c-.47-.47-1.24-.47-1.71,0L15.29,28.85v-8.43c0-2.24.89-4.39,2.48-5.98Z"/>
  <path class="cls-1" d="M25.5,75.34l-12.97-3.47C3.52,69.44-1.84,60.18.58,51.16l3.47-12.97c.58-2.17,2-4.01,3.94-5.13l7.3-4.21-8.44,31.51c-.17.64.21,1.31.85,1.48l31.51,8.44-7.3,4.21c-1.94,1.12-4.25,1.42-6.41.84Z"/>
  <path class="cls-1" d="M74.37,38.19l3.47,12.97c2.42,9.02-2.94,18.29-11.95,20.7l-12.97,3.47c-2.17.58-4.47.28-6.41-.84l-7.3-4.21,31.51-8.44c.64-.17,1.03-.83.85-1.48l-8.44-31.51,7.3,4.21c1.94,1.12,3.36,2.97,3.94,5.13Z"/>
</svg>